<svg xmlns="http://www.w3.org/2000/svg" viewBox="0 0 1200 630"><rect width="1200" height="630" rx="24" fill="#111318"/><text x="56" y="64" fill="#8e96a8" font-family="system-ui" font-size="16">ABHAYS02 / LAB · EMERGENCE MIRAGE</text><text x="56" y="132" fill="#fff" font-family="system-ui" font-size="50" font-weight="800">Same curve. Different apparent jump.</text><text x="56" y="184" fill="#9fa6b5" font-family="system-ui" font-size="22">The model trend stays smooth. Only the scoring rule changes.</text><path d="M70 500 C220 490 360 430 490 350 C610 275 760 210 1120 125" fill="none" stroke="#4a8be0" stroke-width="8"/><path d="M70 500 C250 500 420 498 580 490 C760 465 880 310 1120 145" fill="none" stroke="#48b487" stroke-width="6" stroke-dasharray="900" stroke-dashoffset="900"><animate attributeName="stroke-dashoffset" from="900" to="0" dur="2.8s" repeatCount="indefinite"/></path><path d="M70 500 C390 500 520 500 680 498 C820 490 900 450 930 310 C980 170 1030 140 1120 125" fill="none" stroke="#eb5c28" stroke-width="6" stroke-dasharray="900" stroke-dashoffset="900"><animate attributeName="stroke-dashoffset" from="900" to="0" dur="3.5s" repeatCount="indefinite"/></path><text x="70" y="555" fill="#4a8be0" font-family="system-ui" font-size="20">underlying per-token curve</text><text x="470" y="555" fill="#48b487" font-family="system-ui" font-size="20">k = 1</text><text x="650" y="555" fill="#eb5c28" font-family="system-ui" font-size="20">k = 100</text></svg>