<svg xmlns="http://www.w3.org/2000/svg" viewBox="0 0 1400 820"><rect width="1400" height="820" rx="32" fill="#0d1016"/><text x="70" y="70" fill="#7f899e" font-family="system-ui" font-size="18" letter-spacing="3">ABHAYS02 / LAB</text><text x="70" y="135" fill="#fff" font-family="system-ui" font-size="56" font-weight="800">Seven experiments. One visual map.</text><text x="70" y="178" fill="#a5adbd" font-family="system-ui" font-size="22">Every box is a real folder, a real run, and a real trail of evidence.</text>
<g font-family="system-ui"><rect x="70" y="240" width="390" height="115" rx="22" fill="#171c26" stroke="#343b4a"/><text x="96" y="278" fill="#7f8aa2" font-size="15">01</text><text x="96" y="310" fill="#fff" font-size="25" font-weight="700">Barren plateaus</text><text x="96" y="338" fill="#eb5c28" font-size="19">965× global signal collapse</text>
<rect x="505" y="240" width="390" height="115" rx="22" fill="#171c26" stroke="#343b4a"/><text x="531" y="278" fill="#7f8aa2" font-size="15">02</text><text x="531" y="310" fill="#fff" font-size="25" font-weight="700">Double descent</text><text x="531" y="338" fill="#eb5c28" font-size="19">238,807 → 32.9</text>
<rect x="940" y="240" width="390" height="115" rx="22" fill="#171c26" stroke="#343b4a"/><text x="966" y="278" fill="#7f8aa2" font-size="15">03</text><text x="966" y="310" fill="#fff" font-size="25" font-weight="700">Colibri / GLM</text><text x="966" y="338" fill="#eb5c28" font-size="19">11 GB cold-token reads</text>
<rect x="70" y="390" width="390" height="115" rx="22" fill="#171c26" stroke="#343b4a"/><text x="96" y="428" fill="#7f8aa2" font-size="15">04</text><text x="96" y="460" fill="#fff" font-size="25" font-weight="700">Sorting networks</text><text x="96" y="488" fill="#4a8be0" font-size="19">10 rounds vs 9 optimal</text>
<rect x="505" y="390" width="390" height="115" rx="22" fill="#171c26" stroke="#343b4a"/><text x="531" y="428" fill="#7f8aa2" font-size="15">05</text><text x="531" y="460" fill="#fff" font-size="25" font-weight="700">Quantum boundary</text><text x="531" y="488" fill="#eb5c28" font-size="19">144.12 PB at 53 qubits</text>
<rect x="940" y="390" width="390" height="115" rx="22" fill="#171c26" stroke="#343b4a"/><text x="966" y="428" fill="#7f8aa2" font-size="15">06</text><text x="966" y="460" fill="#fff" font-size="25" font-weight="700">Emergence mirage</text><text x="966" y="488" fill="#4a8be0" font-size="19">same curve, different jump</text>
<rect x="285" y="540" width="830" height="115" rx="22" fill="#171c26" stroke="#343b4a"/><text x="314" y="578" fill="#7f8aa2" font-size="15">07</text><text x="314" y="610" fill="#fff" font-size="25" font-weight="700">Matrix multiplication: omega</text><text x="314" y="638" fill="#4a8be0" font-size="19">n²·8074 call growth, ≈1.06× measured speedup</text></g>
<path d="M120 735 H1280" stroke="#303642" stroke-width="3"/><circle cx="120" cy="735" r="8" fill="#fff"><animate attributeName="cx" values="120;1280;120" dur="7s" repeatCount="indefinite"/></circle><text x="70" y="780" fill="#fff" font-family="system-ui" font-size="20">SEE IT</text><text x="310" y="780" fill="#a5adbd" font-family="system-ui" font-size="20">→ MEASURE IT → VERIFY IT → TRACE IT TO CODE</text></svg>